<svg xmlns="http://www.w3.org/2000/svg" width="225.1256561279297" height="240.02362060546875" viewBox="-37.13429641723633 -31.216018676757812 225.1256561279297 240.02362060546875"><title>Neo4j Graph Visualization</title><desc>Created using Neo4j (http://www.neo4j.com/)</desc><g class="layer relationships"><g class="relationship" transform="translate(76.38412741943925 172.30759453880444) rotate(249.22092370258713)"><path class="outline" fill="#A5ABB6" stroke="none" d="M 7.92865605268739,31.52199887694598 L 8.894581878976458,31.26317983184346 A 49.8891794817539 49.8891794817539 0 0 0 32.040758882447044,61.499199445342406 L 31.538784903911573,62.364082168532825 A 50.8891794817539 50.8891794817539 0 0 1 7.92865605268739,31.52199887694598 Z M 77.53322182685815,64.9505979426452 L 77.13138015359209,64.03488878050544 A 49.8891794817539 49.8891794817539 0 0 0 103.52157191573414,36.58456691169575 L 100.72911810478634,35.48811731699335 L 106.54536327186437,30.251582951934594 L 107.24484366366455,38.04649970463228 L 104.45238985271675,36.95005010992988 A 50.8891794817539 50.8891794817539 0 0 1 77.53322182685815,64.9505979426452"/><text text-anchor="middle" pointer-events="none" font-size="8px" fill="#000000" x="54.254642899187346" y="71.66060210589436" transform="rotate(180 54.254642899187346 68.66060210589436)" font-family="sans-serif">ECONOMY</text></g><g class="relationship" transform="translate(34.37152521690825 61.58685335643671) rotate(351.46992595234406)"><path class="outline" fill="#A5ABB6" stroke="none" d="M 7.92865605268739,-31.52199887694598 L 8.894581878976458,-31.26317983184346 A 49.89256146232173 49.89256146232173 0 0 1 32.04381511051595,-61.50211224285083 L 31.541870939067785,-62.3670122652518 A 50.89256146232173 50.89256146232173 0 0 0 7.92865605268739,-31.52199887694598 Z M 77.5365155466799,-64.95340405159375 L 77.13470004704796,-64.037683404095 A 49.89256146232173 49.89256146232173 0 0 1 103.5280938986125,-36.58465454457058 L 100.73563363987013,-35.48822137134728 L 106.5518480125906,-30.251652803042283 L 107.25137424360231,-38.046565442201654 L 104.45891398485995,-36.95013226897835 A 50.89256146232173 50.89256146232173 0 0 0 77.5365155466799,-64.95340405159375"/><text text-anchor="middle" pointer-events="none" font-size="8px" fill="#000000" x="54.257867691466096" y="-65.66311174958383" font-family="sans-serif">ECONOMY</text></g><g class="relationship" transform="translate(76.38412741943925 172.30759453880444) rotate(249.22092370258713)"><path class="outline" fill="#A5ABB6" stroke="none" d="M 22.627416997969522,23.334523779156065 L 23.33452377915607,22.62741699796952 A 47.728724870923664 47.728724870923664 0 0 0 33.29671284614045,30.256902357510647 L 32.79833129475893,31.12386015881504 A 48.728724870923664 48.728724870923664 0 0 1 22.627416997969522,23.334523779156065 Z M 77.90691283359583,32.93362013685258 L 77.47958615726722,32.029522845794844 A 47.728724870923664 47.728724870923664 0 0 0 88.02096340655247,25.222642242607563 L 86.07640268148943,22.93819841827257 L 93.67542578417796,21.066074521516295 L 90.61371103996986,28.26856734172089 L 88.66915031490682,25.984123517385896 A 48.728724870923664 48.728724870923664 0 0 1 77.90691283359583,32.93362013685258"/><text text-anchor="middle" pointer-events="none" font-size="8px" fill="#000000" x="55.15044379211066" y="40.06806866740474" transform="rotate(180 55.15044379211066 37.06806866740474)" font-family="sans-serif">BUSINESS</text></g><g class="relationship" transform="translate(76.38412741943925 172.30759453880444) rotate(249.22092370258713)"><path class="outline" fill="#A5ABB6" stroke="none" d="M 31.26317983184346,8.894581878976458 L 31.52199887694598,7.92865605268739 A 98.76332673162419 98.76332673162419 0 0 0 41.24193948749768,10.015115817652699 L 41.081536939005936,11.002167499398567 A 99.76332673162419 99.76332673162419 0 0 1 31.26317983184346,8.894581878976458 Z M 70.22976768723366,11.424013571154845 L 70.09799643095002,10.432733421037113 A 98.76332673162419 98.76332673162419 0 0 0 79.87424586872433,8.628431130984797 L 79.18197219295354,5.709397531000927 L 86.8007032146485,7.499631487516924 L 80.79727743641871,12.52047593096329 L 80.10500376064792,9.60144233097942 A 99.76332673162419 99.76332673162419 0 0 1 70.22976768723366,11.424013571154845"/><text text-anchor="middle" pointer-events="none" font-size="8px" fill="#000000" x="55.6473965018953" y="14.783541006898886" transform="rotate(180 55.6473965018953 11.783541006898886)" font-family="sans-serif">FIRST</text></g><g class="relationship" transform="translate(34.37152521690825 61.58685335643671) rotate(429.22092370258713)"><path class="outline" fill="#A5ABB6" stroke="none" d="M 31.26317983184346,8.894581878976458 L 31.52199887694598,7.92865605268739 A 98.76332673162419 98.76332673162419 0 0 0 32.371256006376356,8.152171819140321 L 32.12103587301097,9.120360790807837 A 99.76332673162419 99.76332673162419 0 0 1 31.26317983184346,8.894581878976458 Z M 79.24097322702566,9.802301339648949 L 79.01887613824415,8.827276784494174 A 98.76332673162419 98.76332673162419 0 0 0 79.87424586872433,8.628431130984797 L 79.18197219295354,5.709397531000927 L 86.8007032146485,7.499631487516924 L 80.79727743641871,12.52047593096329 L 80.10500376064792,9.60144233097942 A 99.76332673162419 99.76332673162419 0 0 1 79.24097322702566,9.802301339648949"/><text text-anchor="middle" pointer-events="none" font-size="8px" fill="#000000" x="55.6473965018953" y="14.783541006898886" font-family="sans-serif">ECONOMY</text></g><g class="relationship" transform="translate(34.37152521690825 61.58685335643671) rotate(351.46992595234406)"><path class="outline" fill="#A5ABB6" stroke="none" d="M 13.650737087369436,-29.4984300763874 L 14.551705955271856,-29.06454633726984 A 47.210720697713114 47.210720697713114 0 0 1 32.493316193213744,-48.87944292467922 L 31.97237986819116,-49.73303846430672 A 48.210720697713114 48.210720697713114 0 0 0 13.650737087369436,-29.4984300763874 Z M 77.80483804467428,-52.11273980184319 L 77.37510494361925,-51.20978384397059 A 47.210720697713114 47.210720697713114 0 0 1 97.27235474257853,-33.359547006948986 L 94.7187869122079,-31.784970449363968 L 101.371961348672,-27.663651495681712 L 100.67711184973935,-35.458982417062344 L 98.12354401936872,-33.884405859477326 A 48.210720697713114 48.210720697713114 0 0 0 77.80483804467428,-52.11273980184319"/><text text-anchor="middle" pointer-events="none" font-size="8px" fill="#000000" x="54.61320392263744" y="-53.22712185081706" font-family="sans-serif">ECONOMY</text></g><g class="relationship" transform="translate(34.37152521690825 61.58685335643671) rotate(351.46992595234406)"><path class="outline" fill="#A5ABB6" stroke="none" d="M 18.89685714125547,-26.446337935203466 L 19.701454921022137,-25.852517749629968 A 46.46500593746025 46.46500593746025 0 0 1 32.80592627061828,-37.87658534002161 L 32.28335732276942,-38.72918236954033 A 47.46500593746025 47.46500593746025 0 0 0 18.89685714125547,-26.446337935203466 Z M 78.07555643559965,-40.83308344724878 L 77.63336833331422,-39.93616110824879 A 46.46500593746025 46.46500593746025 0 0 1 91.78518466350248,-29.16437085187499 L 89.5449123276898,-27.1690814339227 L 96.81423869469326,-24.269616971304103 L 94.77221444458606,-31.824756742478037 L 92.53194210877338,-29.829467324525748 A 47.46500593746025 47.46500593746025 0 0 0 78.07555643559965,-40.83308344724878"/><text text-anchor="middle" pointer-events="none" font-size="8px" fill="#000000" x="54.93158423372453" y="-42.176174365330155" font-family="sans-serif">ECONOMY</text></g><g class="relationship" transform="translate(34.37152521690825 61.58685335643671) rotate(351.46992595234406)"><path class="outline" fill="#A5ABB6" stroke="none" d="M 23.4840994655839,-22.472139913469793 L 24.164272203354816,-21.739088041639963 A 48.403620879731925 48.403620879731925 0 0 1 32.931952780321495,-28.202397455762046 L 32.432916916561545,-29.06897878874895 A 49.403620879731925 49.403620879731925 0 0 0 23.4840994655839,-22.472139913469793 Z M 78.37367505823673,-30.839222950375557 L 77.94280422034998,-29.936809341735497 A 48.403620879731925 48.403620879731925 0 0 1 87.18185219500138,-24.167356698330927 L 85.3166142574535,-21.81769982203343 L 92.97525789595352,-20.206744323435437 L 89.6688361117319,-27.300232533394254 L 87.80359817418402,-24.950575657096756 A 49.403620879731925 49.403620879731925 0 0 0 78.37367505823673,-30.839222950375557"/><text text-anchor="middle" pointer-events="none" font-size="8px" fill="#000000" x="55.2040802464949" y="-32.124078192061674" font-family="sans-serif">ECONOMY</text></g><g class="relationship" transform="translate(34.37152521690825 61.58685335643671) rotate(351.46992595234406)"><path class="outline" fill="#A5ABB6" stroke="none" d="M 27.25252043666157,-17.714404586362576 L 27.784552513176905,-16.867680387134293 A 55.07664728392766 55.07664728392766 0 0 1 32.8433806398665,-19.68676072993982 L 32.40319925463618,-20.584669605102945 A 56.07664728392766 56.07664728392766 0 0 0 27.25252043666157,-17.714404586362576 Z M 78.71360455359229,-21.97156721518313 L 78.32794474570568,-21.048926162237365 A 55.07664728392766 55.07664728392766 0 0 1 83.54640629029863,-18.537628668473864 L 82.10517963290519,-15.906494745234966 L 89.92592322075498,-15.61328878842898 L 85.4680418334899,-22.0458072327924 L 84.02681517609646,-19.4146733095535 A 56.07664728392766 56.07664728392766 0 0 0 78.71360455359229,-21.97156721518313"/><text text-anchor="middle" pointer-events="none" font-size="8px" fill="#000000" x="55.423439670229165" y="-22.784691718686695" font-family="sans-serif">ECONOMY</text></g><g class="relationship" transform="translate(34.37152521690825 61.58685335643671) rotate(351.46992595234406)"><path class="outline" fill="#A5ABB6" stroke="none" d="M 30.07072631875344,-12.339020166229938 L 30.436067343119834,-11.408146417585735 A 72.94835897022058 72.94835897022058 0 0 1 32.98535932341122,-12.354226963568834 L 32.654964828566236,-13.298069894239049 A 73.94835897022058 73.94835897022058 0 0 0 30.07072631875344,-12.339020166229938 Z M 78.6428143200895,-14.239346489130455 L 78.35131740135974,-13.282774721634127 A 72.94835897022058 72.94835897022058 0 0 1 80.93718671636029,-12.441800354602512 L 79.95635212934995,-9.606670108401417 L 87.71596305533123,-10.625708025945253 L 82.2449661657074,-16.22197401620397 L 81.26413157869706,-13.386843770002875 A 73.94835897022058 73.94835897022058 0 0 0 78.6428143200895,-14.239346489130455"/><text text-anchor="middle" pointer-events="none" font-size="8px" fill="#000000" x="55.58407365204233" y="-13.935412744734307" font-family="sans-serif">BUSINESS</text></g><g class="relationship" transform="translate(34.37152521690825 61.58685335643671) rotate(429.22092370258713)"><path class="outline" fill="#A5ABB6" stroke="none" d="M 22.627416997969522,23.334523779156065 L 23.33452377915607,22.62741699796952 A 47.728724870923664 47.728724870923664 0 0 0 33.29671284614045,30.256902357510647 L 32.79833129475893,31.12386015881504 A 48.728724870923664 48.728724870923664 0 0 1 22.627416997969522,23.334523779156065 Z M 77.90691283359583,32.93362013685258 L 77.47958615726722,32.029522845794844 A 47.728724870923664 47.728724870923664 0 0 0 88.02096340655247,25.222642242607563 L 86.07640268148943,22.93819841827257 L 93.67542578417796,21.066074521516295 L 90.61371103996986,28.26856734172089 L 88.66915031490682,25.984123517385896 A 48.728724870923664 48.728724870923664 0 0 1 77.90691283359583,32.93362013685258"/><text text-anchor="middle" pointer-events="none" font-size="8px" fill="#000000" x="55.15044379211066" y="40.06806866740474" font-family="sans-serif">BUSINESS</text></g><g class="relationship" transform="translate(34.37152521690825 61.58685335643671) rotate(351.46992595234406)"><path class="outline" fill="#A5ABB6" stroke="none" d="M 31.840454576500413,-6.5334104694113675 L 32.02636618366333,-5.55084399617808 A 134.79916468864494 134.79916468864494 0 0 1 32.67988607714746,-5.672828185722352 L 32.49882257045307,-6.656299591785341 A 135.79916468864494 135.79916468864494 0 0 0 31.840454576500413,-6.5334104694113675 Z M 78.8963087227701,-7.138159456551847 L 78.735709699664,-6.151139723325912 A 134.79916468864494 134.79916468864494 0 0 1 79.39162208746738,-6.042754608091635 L 78.89522747099097,-3.084107555005842 L 86.3778643140803,-5.377608345161001 L 80.05348157610258,-9.987617345539359 L 79.55708695962618,-7.0289702924535655 A 135.79916468864494 135.79916468864494 0 0 0 78.8963087227701,-7.138159456551847"/><text text-anchor="middle" pointer-events="none" font-size="8px" fill="#000000" x="55.68202541228938" y="-5.393572879343196" font-family="sans-serif">BUSINESS</text></g><g class="relationship" transform="translate(34.37152521690825 61.58685335643671) rotate(351.46992595234406)"><path class="outline" fill="#A5ABB6" stroke="none" d="M 32.5 0.5 L 33.82235890292153 0.5 L 33.82235890292153 -0.5 L 32.5 -0.5 Z M 77.60751515292154 0.5 L 78.92987405584306 0.5 L 78.92987405584306 3.5 L 85.92987405584306 0 L 78.92987405584306 -3.5 L 78.92987405584306 -0.5 L 77.60751515292154 -0.5 Z"/><text text-anchor="middle" pointer-events="none" font-size="8px" fill="#000000" x="55.71493702792153" y="3" font-family="sans-serif">BUSINE…</text></g><g class="relationship" transform="translate(34.37152521690825 61.58685335643671) rotate(351.46992595234406)"><path class="outline" fill="#A5ABB6" stroke="none" d="M 31.840454576500413,6.5334104694113675 L 32.02636618366333,5.55084399617808 A 134.79916468864494 134.79916468864494 0 0 0 32.67988607714746,5.672828185722352 L 32.49882257045307,6.656299591785341 A 135.79916468864494 135.79916468864494 0 0 1 31.840454576500413,6.5334104694113675 Z M 78.89630872277016,7.138159456551847 L 78.73570969966406,6.151139723325912 A 134.79916468864494 134.79916468864494 0 0 0 79.39162208746738,6.042754608091635 L 78.89522747099097,3.084107555005842 L 86.3778643140803,5.377608345161001 L 80.05348157610258,9.987617345539359 L 79.55708695962618,7.0289702924535655 A 135.79916468864494 135.79916468864494 0 0 1 78.89630872277016,7.138159456551847"/><text text-anchor="middle" pointer-events="none" font-size="8px" fill="#000000" x="55.682025412289406" y="11.393572879343196" font-family="sans-serif">BUSINESS</text></g><g class="relationship" transform="translate(34.37152521690825 61.58685335643671) rotate(351.46992595234406)"><path class="outline" fill="#A5ABB6" stroke="none" d="M 30.07072631875344,12.339020166229938 L 30.436067343119834,11.408146417585735 A 72.94835897022058 72.94835897022058 0 0 0 32.98535932341122,12.354226963568834 L 32.654964828566236,13.298069894239049 A 73.94835897022058 73.94835897022058 0 0 1 30.07072631875344,12.339020166229938 Z M 78.64281432008949,14.239346489130455 L 78.35131740135972,13.282774721634127 A 72.94835897022058 72.94835897022058 0 0 0 80.93718671636029,12.441800354602512 L 79.95635212934995,9.606670108401417 L 87.71596305533123,10.625708025945253 L 82.2449661657074,16.22197401620397 L 81.26413157869706,13.386843770002875 A 73.94835897022058 73.94835897022058 0 0 1 78.64281432008949,14.239346489130455"/><text text-anchor="middle" pointer-events="none" font-size="8px" fill="#000000" x="55.58407365204233" y="19.935412744734307" font-family="sans-serif">BUSINESS</text></g><g class="relationship" transform="translate(34.37152521690825 61.58685335643671) rotate(429.22092370258713)"><path class="outline" fill="#A5ABB6" stroke="none" d="M 7.92865605268739,31.52199887694598 L 8.894581878976458,31.26317983184346 A 49.8891794817539 49.8891794817539 0 0 0 40.21045375375793,65.30002551530848 L 39.872236625027924,66.24109361796292 A 50.8891794817539 50.8891794817539 0 0 1 7.92865605268739,31.52199887694598 Z M 68.81763572084824,67.86884985019469 L 68.58706004547737,66.89579545401364 A 49.8891794817539 49.8891794817539 0 0 0 103.52157191573414,36.58456691169575 L 100.72911810478634,35.48811731699335 L 106.54536327186437,30.251582951934594 L 107.24484366366455,38.04649970463228 L 104.45238985271675,36.95005010992988 A 50.8891794817539 50.8891794817539 0 0 1 68.81763572084824,67.86884985019469"/><text text-anchor="middle" pointer-events="none" font-size="8px" fill="#000000" x="54.254642899187346" y="71.66060210589436" font-family="sans-serif">FIRST</text></g><g class="relationship" transform="translate(34.37152521690825 61.58685335643671) rotate(351.46992595234406)"><path class="outline" fill="#A5ABB6" stroke="none" d="M 27.25252043666157,17.714404586362576 L 27.784552513176905,16.867680387134293 A 55.07664728392766 55.07664728392766 0 0 0 41.24157415906951,22.980997945506687 L 40.95387470462755,23.93871868972903 A 56.07664728392766 56.07664728392766 0 0 1 27.25252043666157,17.714404586362576 Z M 69.97753994270869,24.807915400373425 L 69.74766806141925,23.834694501403177 A 55.07664728392766 55.07664728392766 0 0 0 83.54640629029863,18.537628668473864 L 82.10517963290519,15.906494745234966 L 89.92592322075498,15.61328878842898 L 85.4680418334899,22.0458072327924 L 84.02681517609646,19.4146733095535 A 56.07664728392766 56.07664728392766 0 0 1 69.97753994270869,24.807915400373425"/><text text-anchor="middle" pointer-events="none" font-size="8px" fill="#000000" x="55.423439670229186" y="28.784691718686695" font-family="sans-serif">FIRST</text></g><g class="relationship" transform="translate(34.37152521690825 61.58685335643671) rotate(351.46992595234406)"><path class="outline" fill="#A5ABB6" stroke="none" d="M 23.4840994655839,22.472139913469793 L 24.164272203354816,21.739088041639963 A 48.403620879731925 48.403620879731925 0 0 0 41.12165033936732,31.951526729725693 L 40.791810445045165,32.89556361677702 A 49.403620879731925 49.403620879731925 0 0 1 23.4840994655839,22.472139913469793 Z M 69.74510356417532,34.01122648733614 L 69.48888736375062,33.04460698689146 A 48.403620879731925 48.403620879731925 0 0 0 87.18185219500138,24.167356698330927 L 85.3166142574535,21.81769982203343 L 92.97525789595352,20.206744323435437 L 89.6688361117319,27.300232533394254 L 87.80359817418402,24.950575657096756 A 49.403620879731925 49.403620879731925 0 0 1 69.74510356417532,34.01122648733614"/><text text-anchor="middle" pointer-events="none" font-size="8px" fill="#000000" x="55.204080246494904" y="38.124078192061674" font-family="sans-serif">FIRST</text></g><g class="relationship" transform="translate(34.37152521690825 61.58685335643671) rotate(351.46992595234406)"><path class="outline" fill="#A5ABB6" stroke="none" d="M 18.89685714125547,26.446337935203466 L 19.701454921022137,25.852517749629968 A 46.46500593746025 46.46500593746025 0 0 0 40.9007095793993,41.81519622282798 L 40.55235309844814,42.75255835251924 A 47.46500593746025 47.46500593746025 0 0 1 18.89685714125547,26.446337935203466 Z M 69.47247169315821,44.081279616351665 L 69.21153469518693,43.115923783982204 A 46.46500593746025 46.46500593746025 0 0 0 91.78518466350248,29.16437085187499 L 89.5449123276898,27.1690814339227 L 96.81423869469326,24.269616971304103 L 94.77221444458606,31.824756742478037 L 92.53194210877338,29.829467324525748 A 47.46500593746025 47.46500593746025 0 0 1 69.47247169315821,44.081279616351665"/><text text-anchor="middle" pointer-events="none" font-size="8px" fill="#000000" x="54.93158423372455" y="48.176174365330155" font-family="sans-serif">FIRST</text></g><g class="relationship" transform="translate(34.37152521690825 61.58685335643671) rotate(351.46992595234406)"><path class="outline" fill="#A5ABB6" stroke="none" d="M 13.650737087369436,29.4984300763874 L 14.551705955271856,29.06454633726984 A 47.210720697713114 47.210720697713114 0 0 0 40.59141974054107,52.815690869557386 L 40.242014445497446,53.7526625552531 A 48.210720697713114 48.210720697713114 0 0 1 13.650737087369436,29.4984300763874 Z M 69.16338171738147,55.25431049469529 L 68.91289207508896,54.286191215316876 A 47.210720697713114 47.210720697713114 0 0 0 97.27235474257853,33.359547006948986 L 94.7187869122079,31.784970449363968 L 101.371961348672,27.663651495681712 L 100.67711184973935,35.458982417062344 L 98.12354401936872,33.884405859477326 A 48.210720697713114 48.210720697713114 0 0 1 69.16338171738147,55.25431049469529"/><text text-anchor="middle" pointer-events="none" font-size="8px" fill="#000000" x="54.613203922637425" y="59.22712185081706" font-family="sans-serif">FIRST</text></g><g class="relationship" transform="translate(34.37152521690825 61.58685335643671) rotate(351.46992595234406)"><path class="outline" fill="#A5ABB6" stroke="none" d="M 7.92865605268739,31.52199887694598 L 8.894581878976458,31.26317983184346 A 49.89256146232173 49.89256146232173 0 0 0 40.21362489139818,65.30270958919552 L 39.87542877259414,66.24378524249119 A 50.89256146232173 50.89256146232173 0 0 1 7.92865605268739,31.52199887694598 Z M 68.820867893819,67.87145834734667 L 68.59030822023372,66.89840015950986 A 49.89256146232173 49.89256146232173 0 0 0 103.5280938986125,36.58465454457058 L 100.73563363987013,35.48822137134728 L 106.5518480125906,30.251652803042283 L 107.25137424360231,38.046565442201654 L 104.45891398485995,36.95013226897835 A 50.89256146232173 50.89256146232173 0 0 1 68.820867893819,67.87145834734667"/><text text-anchor="middle" pointer-events="none" font-size="8px" fill="#000000" x="54.2578676914661" y="71.66311174958383" font-family="sans-serif">FIRST</text></g></g><g class="layer nodes"><g class="node" transform="translate(76.38412741943925,172.30759453880444)"><circle class="outline" cx="0" cy="0" r="32.5" fill="#ECB5C9" stroke="#da7298" stroke-width="2px"/><text text-anchor="middle" pointer-events="none" font-family="sans-serif" dy="2.03125" font-size="32.5" fill="#2A2C34"/><text text-anchor="middle" pointer-events="none" x="0" y="5" font-size="10px" fill="#2A2C34" font-family="sans-serif"> MSN</text></g><g class="node" transform="translate(151.49134497354876,44.020325838031525)"><circle class="outline" cx="0" cy="0" r="32.5" fill="#ECB5C9" stroke="#da7298" stroke-width="2px"/><text text-anchor="middle" pointer-events="none" font-family="sans-serif" dy="2.03125" font-size="32.5" fill="#2A2C34"/><text text-anchor="middle" pointer-events="none" x="0" y="5" font-size="10px" fill="#2A2C34" font-family="sans-serif"> GRR</text></g><g class="node" transform="translate(34.37152521690825,61.58685335643671)"><circle class="outline" cx="0" cy="0" r="32.5" fill="#ECB5C9" stroke="#da7298" stroke-width="2px"/><text text-anchor="middle" pointer-events="none" font-family="sans-serif" dy="2.03125" font-size="32.5" fill="#2A2C34"/><text text-anchor="middle" pointer-events="none" x="0" y="5" font-size="10px" fill="#2A2C34" font-family="sans-serif"> ORD</text></g></g></svg>