<svg xmlns="http://www.w3.org/2000/svg" width="492.3970031738281" height="538.0062255859375" viewBox="-155.38131713867188 -150.8615264892578 492.3970031738281 538.0062255859375"><title>Neo4j Graph Visualization</title><desc>Created using Neo4j (http://www.neo4j.com/)</desc><g class="layer relationships"><g class="relationship" transform="translate(248.2834749871512 262.8041271471728) rotate(239.8194722981769)"><path class="outline" fill="#A5ABB6" stroke="none" d="M 25 0.5 L 34.86124853699806 0.5 L 34.86124853699806 -0.5 L 25 -0.5 Z M 80.42374853699806 0.5 L 90.28499707399612 0.5 L 90.28499707399612 3.5 L 97.28499707399612 0 L 90.28499707399612 -3.5 L 90.28499707399612 -0.5 L 80.42374853699806 -0.5 Z"/><text text-anchor="middle" pointer-events="none" font-size="8px" fill="#000000" x="57.64249853699806" y="3" transform="rotate(180 57.64249853699806 0)" font-family="sans-serif">ACTED_IN</text></g><g class="relationship" transform="translate(51.72309666466532 131.51604490256037) rotate(370.72246448654505)"><path class="outline" fill="#A5ABB6" stroke="none" d="M 25 0.5 L 42.46125315614995 0.5 L 42.46125315614995 -0.5 L 25 -0.5 Z M 88.02375315614995 0.5 L 105.4850063122999 0.5 L 105.4850063122999 3.5 L 112.4850063122999 0 L 105.4850063122999 -3.5 L 105.4850063122999 -0.5 L 88.02375315614995 -0.5 Z"/><text text-anchor="middle" pointer-events="none" font-size="8px" fill="#000000" x="65.24250315614995" y="3" font-family="sans-serif">ACTED_IN</text></g><g class="relationship" transform="translate(51.72309666466532 131.51604490256037) rotate(286.96470513210494)"><path class="outline" fill="#A5ABB6" stroke="none" d="M 25 0.5 L 41.445936959402374 0.5 L 41.445936959402374 -0.5 L 25 -0.5 Z M 87.00843695940237 0.5 L 103.45437391880475 0.5 L 103.45437391880475 3.5 L 110.45437391880475 0 L 103.45437391880475 -3.5 L 103.45437391880475 -0.5 L 87.00843695940237 -0.5 Z"/><text text-anchor="middle" pointer-events="none" font-size="8px" fill="#000000" x="64.22718695940237" y="3" font-family="sans-serif">ACTED_IN</text></g><g class="relationship" transform="translate(51.72309666466532 131.51604490256037) rotate(200.02537895106036)"><path class="outline" fill="#A5ABB6" stroke="none" d="M 25 0.5 L 46.61777357237999 0.5 L 46.61777357237999 -0.5 L 25 -0.5 Z M 92.18027357237999 0.5 L 113.79804714475998 0.5 L 113.79804714475998 3.5 L 120.79804714475998 0 L 113.79804714475998 -3.5 L 113.79804714475998 -0.5 L 92.18027357237999 -0.5 Z"/><text text-anchor="middle" pointer-events="none" font-size="8px" fill="#000000" x="69.39902357237999" y="3" transform="rotate(180 69.39902357237999 0)" font-family="sans-serif">ACTED_IN</text></g><g class="relationship" transform="translate(51.72309666466532 131.51604490256037) rotate(486.83519859127455)"><path class="outline" fill="#A5ABB6" stroke="none" d="M 25 0.5 L 49.7422426241979 0.5 L 49.7422426241979 -0.5 L 25 -0.5 Z M 95.3047426241979 0.5 L 120.0469852483958 0.5 L 120.0469852483958 3.5 L 127.0469852483958 0 L 120.0469852483958 -3.5 L 120.0469852483958 -0.5 L 95.3047426241979 -0.5 Z"/><text text-anchor="middle" pointer-events="none" font-size="8px" fill="#000000" x="72.5234926241979" y="3" transform="rotate(180 72.5234926241979 0)" font-family="sans-serif">ACTED_IN</text></g><g class="relationship" transform="translate(51.72309666466532 131.51604490256037) rotate(466.1995763432926)"><path class="outline" fill="#A5ABB6" stroke="none" d="M 25 0.5 L 31.593466442943217 0.5 L 31.593466442943217 -0.5 L 25 -0.5 Z M 77.15596644294322 0.5 L 83.74943288588643 0.5 L 83.74943288588643 3.5 L 90.74943288588643 0 L 83.74943288588643 -3.5 L 83.74943288588643 -0.5 L 77.15596644294322 -0.5 Z"/><text text-anchor="middle" pointer-events="none" font-size="8px" fill="#000000" x="54.37471644294322" y="3" transform="rotate(180 54.37471644294322 0)" font-family="sans-serif">ACTED_IN</text></g><g class="relationship" transform="translate(308.0156416797151 187.87151380498045) rotate(194.2469835953167)"><path class="outline" fill="#A5ABB6" stroke="none" d="M 25 0.5 L 36.245860721418595 0.5 L 36.245860721418595 -0.5 L 25 -0.5 Z M 81.8083607214186 0.5 L 93.05422144283719 0.5 L 93.05422144283719 3.5 L 100.05422144283719 0 L 93.05422144283719 -3.5 L 93.05422144283719 -0.5 L 81.8083607214186 -0.5 Z"/><text text-anchor="middle" pointer-events="none" font-size="8px" fill="#000000" x="59.027110721418595" y="3" transform="rotate(180 59.027110721418595 0)" font-family="sans-serif">ACTED_IN</text></g><g class="relationship" transform="translate(295.35084481070214 96.03631584784192) rotate(510.6408438491533)"><path class="outline" fill="#A5ABB6" stroke="none" d="M 25 0.5 L 35.98801435779927 0.5 L 35.98801435779927 -0.5 L 25 -0.5 Z M 81.55051435779927 0.5 L 92.53852871559855 0.5 L 92.53852871559855 3.5 L 99.53852871559855 0 L 92.53852871559855 -3.5 L 92.53852871559855 -0.5 L 81.55051435779927 -0.5 Z"/><text text-anchor="middle" pointer-events="none" font-size="8px" fill="#000000" x="58.76926435779927" y="3" transform="rotate(180 58.76926435779927 0)" font-family="sans-serif">ACTED_IN</text></g><g class="relationship" transform="translate(209.34903792725567 -33.204102419710914) rotate(523.421314925146)"><path class="outline" fill="#A5ABB6" stroke="none" d="M 25 0.5 L 35.33142244291181 0.5 L 35.33142244291181 -0.5 L 25 -0.5 Z M 80.89392244291182 0.5 L 91.22534488582362 0.5 L 91.22534488582362 3.5 L 98.22534488582362 0 L 91.22534488582362 -3.5 L 91.22534488582362 -0.5 L 80.89392244291182 -0.5 Z"/><text text-anchor="middle" pointer-events="none" font-size="8px" fill="#000000" x="58.11267244291181" y="3" transform="rotate(180 58.11267244291181 0)" font-family="sans-serif">ACTED_IN</text></g><g class="relationship" transform="translate(162.16834048483378 -101.84716142001187) rotate(484.34227899521363)"><path class="outline" fill="#A5ABB6" stroke="none" d="M 25 0.5 L 36.577782218570746 0.5 L 36.577782218570746 -0.5 L 25 -0.5 Z M 82.14028221857075 0.5 L 93.71806443714149 0.5 L 93.71806443714149 3.5 L 100.71806443714149 0 L 93.71806443714149 -3.5 L 93.71806443714149 -0.5 L 82.14028221857075 -0.5 Z"/><text text-anchor="middle" pointer-events="none" font-size="8px" fill="#000000" x="59.359032218570746" y="3" transform="rotate(180 59.359032218570746 0)" font-family="sans-serif">ACTED_IN</text></g><g class="relationship" transform="translate(0.4816764103657292 -80.35498937024964) rotate(402.2036885139581)"><path class="outline" fill="#A5ABB6" stroke="none" d="M 25 0.5 L 34.98317968986851 0.5 L 34.98317968986851 -0.5 L 25 -0.5 Z M 80.5456796898685 0.5 L 90.52885937973701 0.5 L 90.52885937973701 3.5 L 97.52885937973701 0 L 90.52885937973701 -3.5 L 90.52885937973701 -0.5 L 80.5456796898685 -0.5 Z"/><text text-anchor="middle" pointer-events="none" font-size="8px" fill="#000000" x="57.76442968986851" y="3" font-family="sans-serif">ACTED_IN</text></g><g class="relationship" transform="translate(78.80589307846827 -121.86151864545336) rotate(444.26252601945777)"><path class="outline" fill="#A5ABB6" stroke="none" d="M 25 0.5 L 35.93921489267361 0.5 L 35.93921489267361 -0.5 L 25 -0.5 Z M 81.50171489267362 0.5 L 92.44092978534722 0.5 L 92.44092978534722 3.5 L 99.44092978534722 0 L 92.44092978534722 -3.5 L 92.44092978534722 -0.5 L 81.50171489267362 -0.5 Z"/><text text-anchor="middle" pointer-events="none" font-size="8px" fill="#000000" x="58.72046489267361" y="3" font-family="sans-serif">ACTED_IN</text></g><g class="relationship" transform="translate(-17.637869881952767 150.16983651367642) rotate(225.40301662615514)"><path class="outline" fill="#A5ABB6" stroke="none" d="M 25 0.5 L 26.988121661861342 0.5 L 26.988121661861342 -0.5 L 25 -0.5 Z M 62.32405916186134 0.5 L 64.31218082372268 0.5 L 64.31218082372268 3.5 L 71.31218082372268 0 L 64.31218082372268 -3.5 L 64.31218082372268 -0.5 L 62.32405916186134 -0.5 Z"/><text text-anchor="middle" pointer-events="none" font-size="8px" fill="#000000" x="44.65609041186134" y="3" transform="rotate(180 44.65609041186134 0)" font-family="sans-serif">ACTE…</text></g><g class="relationship" transform="translate(-17.637869881952767 150.16983651367642) rotate(461.9424879215044)"><path class="outline" fill="#A5ABB6" stroke="none" d="M 25 0.5 L 26.37802935349714 0.5 L 26.37802935349714 -0.5 L 25 -0.5 Z M 71.94052935349714 0.5 L 73.31855870699428 0.5 L 73.31855870699428 3.5 L 80.31855870699428 0 L 73.31855870699428 -3.5 L 73.31855870699428 -0.5 L 71.94052935349714 -0.5 Z"/><text text-anchor="middle" pointer-events="none" font-size="8px" fill="#000000" x="49.15927935349714" y="3" transform="rotate(180 49.15927935349714 0)" font-family="sans-serif">ACTED_IN</text></g><g class="relationship" transform="translate(-17.637869881952767 150.16983651367642) rotate(428.1618796167544)"><path class="outline" fill="#A5ABB6" stroke="none" d="M 25 0.5 L 25.768858229996283 0.5 L 25.768858229996283 -0.5 L 25 -0.5 Z M 66.88213947999628 0.5 L 67.65099770999257 0.5 L 67.65099770999257 3.5 L 74.65099770999257 0 L 67.65099770999257 -3.5 L 67.65099770999257 -0.5 L 66.88213947999628 -0.5 Z"/><text text-anchor="middle" pointer-events="none" font-size="8px" fill="#000000" x="46.32549885499628" y="3" font-family="sans-serif">ACTED…</text></g><g class="relationship" transform="translate(-86.04489369949042 171.81707457433538) rotate(270.49831004929547)"><path class="outline" fill="#A5ABB6" stroke="none" d="M 25 0.5 L 26.61549614988929 0.5 L 26.61549614988929 -0.5 L 25 -0.5 Z M 56.61549614988929 0.5 L 58.23099229977858 0.5 L 58.23099229977858 3.5 L 65.23099229977858 0 L 58.23099229977858 -3.5 L 58.23099229977858 -0.5 L 56.61549614988929 -0.5 Z"/><text text-anchor="middle" pointer-events="none" font-size="8px" fill="#000000" x="41.61549614988929" y="3" font-family="sans-serif">ACT…</text></g><g class="relationship" transform="translate(-86.04489369949042 171.81707457433538) rotate(420.2000178452978)"><path class="outline" fill="#A5ABB6" stroke="none" d="M 25 0.5 L 25.72936412879865 0.5 L 25.72936412879865 -0.5 L 25 -0.5 Z M 61.06530162879865 0.5 L 61.7946657575973 0.5 L 61.7946657575973 3.5 L 68.7946657575973 0 L 61.7946657575973 -3.5 L 61.7946657575973 -0.5 L 61.06530162879865 -0.5 Z"/><text text-anchor="middle" pointer-events="none" font-size="8px" fill="#000000" x="43.39733287879865" y="3" font-family="sans-serif">ACTE…</text></g><g class="relationship" transform="translate(-86.04489369949042 171.81707457433538) rotate(393.8909786220823)"><path class="outline" fill="#A5ABB6" stroke="none" d="M 25 0.5 L 37.250696811378255 0.5 L 37.250696811378255 -0.5 L 25 -0.5 Z M 82.81319681137825 0.5 L 95.06389362275651 0.5 L 95.06389362275651 3.5 L 102.06389362275651 0 L 95.06389362275651 -3.5 L 95.06389362275651 -0.5 L 82.81319681137825 -0.5 Z"/><text text-anchor="middle" pointer-events="none" font-size="8px" fill="#000000" x="60.031946811378255" y="3" font-family="sans-serif">ACTED_IN</text></g><g class="relationship" transform="translate(-126.38130518693598 215.9603112331864) rotate(287.0155471929678)"><path class="outline" fill="#A5ABB6" stroke="none" d="M 25 0.5 L 43.979808962877854 0.5 L 43.979808962877854 -0.5 L 25 -0.5 Z M 89.54230896287785 0.5 L 108.52211792575571 0.5 L 108.52211792575571 3.5 L 115.52211792575571 0 L 108.52211792575571 -3.5 L 108.52211792575571 -0.5 L 89.54230896287785 -0.5 Z"/><text text-anchor="middle" pointer-events="none" font-size="8px" fill="#000000" x="66.76105896287785" y="3" font-family="sans-serif">ACTED_IN</text></g><g class="relationship" transform="translate(-126.38130518693598 215.9603112331864) rotate(383.18985463432625)"><path class="outline" fill="#A5ABB6" stroke="none" d="M 25 0.5 L 26.128273720468208 0.5 L 26.128273720468208 -0.5 L 25 -0.5 Z M 61.46421122046821 0.5 L 62.592484940936416 0.5 L 62.592484940936416 3.5 L 69.59248494093642 0 L 62.592484940936416 -3.5 L 62.592484940936416 -0.5 L 61.46421122046821 -0.5 Z"/><text text-anchor="middle" pointer-events="none" font-size="8px" fill="#000000" x="43.79624247046821" y="3" font-family="sans-serif">ACTE…</text></g><g class="relationship" transform="translate(-126.38130518693598 215.9603112331864) rotate(370.380186921211)"><path class="outline" fill="#A5ABB6" stroke="none" d="M 25 0.5 L 47.8378764883569 0.5 L 47.8378764883569 -0.5 L 25 -0.5 Z M 93.4003764883569 0.5 L 116.2382529767138 0.5 L 116.2382529767138 3.5 L 123.2382529767138 0 L 116.2382529767138 -3.5 L 116.2382529767138 -0.5 L 93.4003764883569 -0.5 Z"/><text text-anchor="middle" pointer-events="none" font-size="8px" fill="#000000" x="70.6191264883569" y="3" font-family="sans-serif">ACTED_IN</text></g><g class="relationship" transform="translate(59.686861935767666 358.14467164494164) rotate(250.78080714779446)"><path class="outline" fill="#A5ABB6" stroke="none" d="M 25 0.5 L 34.86408384068416 0.5 L 34.86408384068416 -0.5 L 25 -0.5 Z M 80.42658384068416 0.5 L 90.29066768136832 0.5 L 90.29066768136832 3.5 L 97.29066768136832 0 L 90.29066768136832 -3.5 L 90.29066768136832 -0.5 L 80.42658384068416 -0.5 Z"/><text text-anchor="middle" pointer-events="none" font-size="8px" fill="#000000" x="57.64533384068416" y="3" transform="rotate(180 57.64533384068416 0)" font-family="sans-serif">ACTED_IN</text></g></g><g class="layer nodes"><g class="node" transform="translate(248.2834749871512,262.8041271471728)"><circle class="outline" cx="0" cy="0" r="25" fill="#F79767" stroke="#f36924" stroke-width="2px"/><text text-anchor="middle" pointer-events="none" font-family="sans-serif" dy="1.5625" font-size="25" fill="#FFFFFF"/><text text-anchor="middle" pointer-events="none" font-family="sans-serif" dy="1.5625" font-size="25" fill="#FFFFFF"/><text text-anchor="middle" pointer-events="none" x="0" y="0" font-size="10px" fill="#FFFFFF" font-family="sans-serif"> Tom</text><text text-anchor="middle" pointer-events="none" x="0" y="10" font-size="10px" fill="#FFFFFF" font-family="sans-serif"> Hanks</text></g><g class="node" transform="translate(51.72309666466532,131.51604490256037)"><circle class="outline" cx="0" cy="0" r="25" fill="#F79767" stroke="#f36924" stroke-width="2px"/><text text-anchor="middle" pointer-events="none" font-family="sans-serif" dy="1.5625" font-size="25" fill="#FFFFFF"/><text text-anchor="middle" pointer-events="none" font-family="sans-serif" dy="1.5625" font-size="25" fill="#FFFFFF"/><text text-anchor="middle" pointer-events="none" x="0" y="0" font-size="10px" fill="#FFFFFF" font-family="sans-serif"> Hugo</text><text text-anchor="middle" pointer-events="none" x="0" y="10" font-size="10px" fill="#FFFFFF" font-family="sans-serif"> Weaving</text></g><g class="node" transform="translate(186.80760445408583,157.09538648875312)"><circle class="outline" cx="0" cy="0" r="25" fill="#57C7E3" stroke="#23b3d7" stroke-width="2px"/><text text-anchor="middle" pointer-events="none" font-family="sans-serif" dy="1.5625" font-size="25" fill="#2A2C34"/><text text-anchor="middle" pointer-events="none" font-family="sans-serif" dy="1.5625" font-size="25" fill="#2A2C34"/><text text-anchor="middle" pointer-events="none" x="0" y="0" font-size="10px" fill="#2A2C34" font-family="sans-serif"> Cloud</text><text text-anchor="middle" pointer-events="none" x="0" y="10" font-size="10px" fill="#2A2C34" font-family="sans-serif"> Atlas</text></g><g class="node" transform="translate(308.0156416797151,187.87151380498045)"><circle class="outline" cx="0" cy="0" r="25" fill="#F79767" stroke="#f36924" stroke-width="2px"/><text text-anchor="middle" pointer-events="none" font-family="sans-serif" dy="1.5625" font-size="25" fill="#FFFFFF"/><text text-anchor="middle" pointer-events="none" font-family="sans-serif" dy="1.5625" font-size="25" fill="#FFFFFF"/><text text-anchor="middle" pointer-events="none" x="0" y="0" font-size="10px" fill="#FFFFFF" font-family="sans-serif"> Jim</text><text text-anchor="middle" pointer-events="none" x="0" y="10" font-size="10px" fill="#FFFFFF" font-family="sans-serif"> Broadb…</text></g><g class="node" transform="translate(295.35084481070214,96.03631584784192)"><circle class="outline" cx="0" cy="0" r="25" fill="#F79767" stroke="#f36924" stroke-width="2px"/><text text-anchor="middle" pointer-events="none" font-family="sans-serif" dy="1.5625" font-size="25" fill="#FFFFFF"/><text text-anchor="middle" pointer-events="none" font-family="sans-serif" dy="1.5625" font-size="25" fill="#FFFFFF"/><text text-anchor="middle" pointer-events="none" x="0" y="0" font-size="10px" fill="#FFFFFF" font-family="sans-serif"> Halle</text><text text-anchor="middle" pointer-events="none" x="0" y="10" font-size="10px" fill="#FFFFFF" font-family="sans-serif"> Berry</text></g><g class="node" transform="translate(209.34903792725567,-33.204102419710914)"><circle class="outline" cx="0" cy="0" r="25" fill="#F79767" stroke="#f36924" stroke-width="2px"/><text text-anchor="middle" pointer-events="none" font-family="sans-serif" dy="1.5625" font-size="25" fill="#FFFFFF"/><text text-anchor="middle" pointer-events="none" x="0" y="5" font-size="10px" fill="#FFFFFF" font-family="sans-serif"> John Hurt</text></g><g class="node" transform="translate(91.24631989304233,1.9560115613511304)"><circle class="outline" cx="0" cy="0" r="25" fill="#57C7E3" stroke="#23b3d7" stroke-width="2px"/><text text-anchor="middle" pointer-events="none" font-family="sans-serif" dy="1.5625" font-size="25" fill="#2A2C34"/><text text-anchor="middle" pointer-events="none" font-family="sans-serif" dy="1.5625" font-size="25" fill="#2A2C34"/><text text-anchor="middle" pointer-events="none" x="0" y="0" font-size="10px" fill="#2A2C34" font-family="sans-serif"> V for</text><text text-anchor="middle" pointer-events="none" x="0" y="10" font-size="10px" fill="#2A2C34" font-family="sans-serif"> Vendetta</text></g><g class="node" transform="translate(162.16834048483378,-101.84716142001187)"><circle class="outline" cx="0" cy="0" r="25" fill="#F79767" stroke="#f36924" stroke-width="2px"/><text text-anchor="middle" pointer-events="none" font-family="sans-serif" dy="1.5625" font-size="25" fill="#FFFFFF"/><text text-anchor="middle" pointer-events="none" font-family="sans-serif" dy="1.5625" font-size="25" fill="#FFFFFF"/><text text-anchor="middle" pointer-events="none" x="0" y="0" font-size="10px" fill="#FFFFFF" font-family="sans-serif"> Stephen</text><text text-anchor="middle" pointer-events="none" x="0" y="10" font-size="10px" fill="#FFFFFF" font-family="sans-serif"> Rea</text></g><g class="node" transform="translate(0.4816764103657292,-80.35498937024964)"><circle class="outline" cx="0" cy="0" r="25" fill="#F79767" stroke="#f36924" stroke-width="2px"/><text text-anchor="middle" pointer-events="none" font-family="sans-serif" dy="1.5625" font-size="25" fill="#FFFFFF"/><text text-anchor="middle" pointer-events="none" font-family="sans-serif" dy="1.5625" font-size="25" fill="#FFFFFF"/><text text-anchor="middle" pointer-events="none" x="0" y="0" font-size="10px" fill="#FFFFFF" font-family="sans-serif"> Natalie</text><text text-anchor="middle" pointer-events="none" x="0" y="10" font-size="10px" fill="#FFFFFF" font-family="sans-serif"> Portman</text></g><g class="node" transform="translate(78.80589307846827,-121.86151864545336)"><circle class="outline" cx="0" cy="0" r="25" fill="#F79767" stroke="#f36924" stroke-width="2px"/><text text-anchor="middle" pointer-events="none" font-family="sans-serif" dy="1.5625" font-size="25" fill="#FFFFFF"/><text text-anchor="middle" pointer-events="none" x="0" y="5" font-size="10px" fill="#FFFFFF" font-family="sans-serif"> Ben Miles</text></g><g class="node" transform="translate(-17.637869881952767,150.16983651367642)"><circle class="outline" cx="0" cy="0" r="25" fill="#F79767" stroke="#f36924" stroke-width="2px"/><text text-anchor="middle" pointer-events="none" font-family="sans-serif" dy="1.5625" font-size="25" fill="#FFFFFF"/><text text-anchor="middle" pointer-events="none" font-family="sans-serif" dy="1.5625" font-size="25" fill="#FFFFFF"/><text text-anchor="middle" pointer-events="none" x="0" y="0" font-size="10px" fill="#FFFFFF" font-family="sans-serif"> Laurence</text><text text-anchor="middle" pointer-events="none" x="0" y="10" font-size="10px" fill="#FFFFFF" font-family="sans-serif"> Fishbur…</text></g><g class="node" transform="translate(-85.2601510226619,81.58949480886753)"><circle class="outline" cx="0" cy="0" r="25" fill="#57C7E3" stroke="#23b3d7" stroke-width="2px"/><text text-anchor="middle" pointer-events="none" font-family="sans-serif" dy="1.5625" font-size="25" fill="#2A2C34"/><text text-anchor="middle" pointer-events="none" font-family="sans-serif" dy="1.5625" font-size="25" fill="#2A2C34"/><text text-anchor="middle" pointer-events="none" font-family="sans-serif" dy="1.5625" font-size="25" fill="#2A2C34"/><text text-anchor="middle" pointer-events="none" x="0" y="-5" font-size="10px" fill="#2A2C34" font-family="sans-serif"> The</text><text text-anchor="middle" pointer-events="none" x="0" y="5" font-size="10px" fill="#2A2C34" font-family="sans-serif"> Matrix</text><text text-anchor="middle" pointer-events="none" x="0" y="15" font-size="10px" fill="#2A2C34" font-family="sans-serif"> Revol…</text></g><g class="node" transform="translate(-86.04489369949042,171.81707457433538)"><circle class="outline" cx="0" cy="0" r="25" fill="#F79767" stroke="#f36924" stroke-width="2px"/><text text-anchor="middle" pointer-events="none" font-family="sans-serif" dy="1.5625" font-size="25" fill="#FFFFFF"/><text text-anchor="middle" pointer-events="none" x="0" y="5" font-size="10px" fill="#FFFFFF" font-family="sans-serif"> Carrie-A…</text></g><g class="node" transform="translate(-126.38130518693598,215.9603112331864)"><circle class="outline" cx="0" cy="0" r="25" fill="#F79767" stroke="#f36924" stroke-width="2px"/><text text-anchor="middle" pointer-events="none" font-family="sans-serif" dy="1.5625" font-size="25" fill="#FFFFFF"/><text text-anchor="middle" pointer-events="none" font-family="sans-serif" dy="1.5625" font-size="25" fill="#FFFFFF"/><text text-anchor="middle" pointer-events="none" x="0" y="0" font-size="10px" fill="#FFFFFF" font-family="sans-serif"> Keanu</text><text text-anchor="middle" pointer-events="none" x="0" y="10" font-size="10px" fill="#FFFFFF" font-family="sans-serif"> Reeves</text></g><g class="node" transform="translate(-39.43141248489998,253.20885974726556)"><circle class="outline" cx="0" cy="0" r="25" fill="#57C7E3" stroke="#23b3d7" stroke-width="2px"/><text text-anchor="middle" pointer-events="none" font-family="sans-serif" dy="1.5625" font-size="25" fill="#2A2C34"/><text text-anchor="middle" pointer-events="none" font-family="sans-serif" dy="1.5625" font-size="25" fill="#2A2C34"/><text text-anchor="middle" pointer-events="none" font-family="sans-serif" dy="1.5625" font-size="25" fill="#2A2C34"/><text text-anchor="middle" pointer-events="none" x="0" y="-5" font-size="10px" fill="#2A2C34" font-family="sans-serif"> The</text><text text-anchor="middle" pointer-events="none" x="0" y="5" font-size="10px" fill="#2A2C34" font-family="sans-serif"> Matrix</text><text text-anchor="middle" pointer-events="none" x="0" y="15" font-size="10px" fill="#2A2C34" font-family="sans-serif"> Reloa…</text></g><g class="node" transform="translate(59.686861935767666,358.14467164494164)"><circle class="outline" cx="0" cy="0" r="25" fill="#F79767" stroke="#f36924" stroke-width="2px"/><text text-anchor="middle" pointer-events="none" font-family="sans-serif" dy="1.5625" font-size="25" fill="#FFFFFF"/><text text-anchor="middle" pointer-events="none" font-family="sans-serif" dy="1.5625" font-size="25" fill="#FFFFFF"/><text text-anchor="middle" pointer-events="none" x="0" y="0" font-size="10px" fill="#FFFFFF" font-family="sans-serif"> Emil</text><text text-anchor="middle" pointer-events="none" x="0" y="10" font-size="10px" fill="#FFFFFF" font-family="sans-serif"> Eifrem</text></g><g class="node" transform="translate(19.430856252631322,242.66973320203033)"><circle class="outline" cx="0" cy="0" r="25" fill="#57C7E3" stroke="#23b3d7" stroke-width="2px"/><text text-anchor="middle" pointer-events="none" font-family="sans-serif" dy="1.5625" font-size="25" fill="#2A2C34"/><text text-anchor="middle" pointer-events="none" font-family="sans-serif" dy="1.5625" font-size="25" fill="#2A2C34"/><text text-anchor="middle" pointer-events="none" x="0" y="0" font-size="10px" fill="#2A2C34" font-family="sans-serif"> The</text><text text-anchor="middle" pointer-events="none" x="0" y="10" font-size="10px" fill="#2A2C34" font-family="sans-serif"> Matrix</text></g></g></svg>