<svg xmlns="http://www.w3.org/2000/svg" width="492.1922607421875" height="355.66278076171875" viewBox="-110.32106018066406 -75.54200744628906 492.1922607421875 355.66278076171875"><title>Neo4j Graph Visualization</title><desc>Created using Neo4j (http://www.neo4j.com/)</desc><g class="layer relationships"><g class="relationship" transform="translate(249.361130659192 150.08269968791924) rotate(421.2117387011577)"><path class="outline" fill="#A5ABB6" stroke="none" d="M 25 0.5 L 31.362196221454006 0.5 L 31.362196221454006 -0.5 L 25 -0.5 Z M 76.92469622145401 0.5 L 83.28689244290801 0.5 L 83.28689244290801 3.5 L 90.28689244290801 0 L 83.28689244290801 -3.5 L 83.28689244290801 -0.5 L 76.92469622145401 -0.5 Z"/><text text-anchor="middle" pointer-events="none" font-size="8px" fill="#000000" x="54.143446221454006" y="3" font-family="sans-serif">ACTED_IN</text></g><g class="relationship" transform="translate(249.361130659192 150.08269968791924) rotate(332.51355102080356)"><path class="outline" fill="#A5ABB6" stroke="none" d="M 25 0.5 L 32.059250907810465 0.5 L 32.059250907810465 -0.5 L 25 -0.5 Z M 77.62175090781047 0.5 L 84.68100181562093 0.5 L 84.68100181562093 3.5 L 91.68100181562093 0 L 84.68100181562093 -3.5 L 84.68100181562093 -0.5 L 77.62175090781047 -0.5 Z"/><text text-anchor="middle" pointer-events="none" font-size="8px" fill="#000000" x="54.840500907810465" y="3" font-family="sans-serif">ACTED_IN</text></g><g class="relationship" transform="translate(249.361130659192 150.08269968791924) rotate(534.7417678527552)"><path class="outline" fill="#A5ABB6" stroke="none" d="M 25 0.5 L 26.101180803328987 0.5 L 26.101180803328987 -0.5 L 25 -0.5 Z M 51.21446205332899 0.5 L 52.31564285665797 0.5 L 52.31564285665797 3.5 L 59.31564285665797 0 L 52.31564285665797 -3.5 L 52.31564285665797 -0.5 L 51.21446205332899 -0.5 Z"/><text text-anchor="middle" pointer-events="none" font-size="8px" fill="#000000" x="38.65782142832899" y="3" transform="rotate(180 38.65782142832899 0)" font-family="sans-serif">AC…</text></g><g class="relationship" transform="translate(249.361130659192 150.08269968791924) rotate(180.10714823243615)"><path class="outline" fill="#A5ABB6" stroke="none" d="M 25 0.5 L 45.24752475634567 0.5 L 45.24752475634567 -0.5 L 25 -0.5 Z M 90.81002475634567 0.5 L 111.05754951269134 0.5 L 111.05754951269134 3.5 L 118.05754951269134 0 L 111.05754951269134 -3.5 L 111.05754951269134 -0.5 L 90.81002475634567 -0.5 Z"/><text text-anchor="middle" pointer-events="none" font-size="8px" fill="#000000" x="68.02877475634567" y="3" transform="rotate(180 68.02877475634567 0)" font-family="sans-serif">ACTED_IN</text></g><g class="relationship" transform="translate(249.361130659192 150.08269968791924) rotate(204.0649331960028)"><path class="outline" fill="#A5ABB6" stroke="none" d="M 25 0.5 L 32.074931025660376 0.5 L 32.074931025660376 -0.5 L 25 -0.5 Z M 77.63743102566038 0.5 L 84.71236205132075 0.5 L 84.71236205132075 3.5 L 91.71236205132075 0 L 84.71236205132075 -3.5 L 84.71236205132075 -0.5 L 77.63743102566038 -0.5 Z"/><text text-anchor="middle" pointer-events="none" font-size="8px" fill="#000000" x="54.856181025660376" y="3" transform="rotate(180 54.856181025660376 0)" font-family="sans-serif">ACTED_IN</text></g><g class="relationship" transform="translate(191.50831484586638 36.648476426724685) rotate(462.1602410751141)"><path class="outline" fill="#A5ABB6" stroke="none" d="M 25 0.5 L 35.68989198353193 0.5 L 35.68989198353193 -0.5 L 25 -0.5 Z M 81.25239198353194 0.5 L 91.94228396706386 0.5 L 91.94228396706386 3.5 L 98.94228396706386 0 L 91.94228396706386 -3.5 L 91.94228396706386 -0.5 L 81.25239198353194 -0.5 Z"/><text text-anchor="middle" pointer-events="none" font-size="8px" fill="#000000" x="58.47114198353193" y="3" transform="rotate(180 58.47114198353193 0)" font-family="sans-serif">ACTED_IN</text></g><g class="relationship" transform="translate(191.50831484586638 36.648476426724685) rotate(486.97650439547147)"><path class="outline" fill="#A5ABB6" stroke="none" d="M 25 0.5 L 44.546894868197256 0.5 L 44.546894868197256 -0.5 L 25 -0.5 Z M 90.10939486819726 0.5 L 109.65628973639451 0.5 L 109.65628973639451 3.5 L 116.65628973639451 0 L 109.65628973639451 -3.5 L 109.65628973639451 -0.5 L 90.10939486819726 -0.5 Z"/><text text-anchor="middle" pointer-events="none" font-size="8px" fill="#000000" x="67.32814486819726" y="3" transform="rotate(180 67.32814486819726 0)" font-family="sans-serif">ACTED_IN</text></g><g class="relationship" transform="translate(191.50831484586638 36.648476426724685) rotate(486.4970091975571)"><path class="outline" fill="#A5ABB6" stroke="none" d="M 25 0.5 L 27.784397952800028 0.5 L 27.784397952800028 -0.5 L 25 -0.5 Z M 47.12033545280003 0.5 L 49.904733405600055 0.5 L 49.904733405600055 3.5 L 56.904733405600055 0 L 49.904733405600055 -3.5 L 49.904733405600055 -0.5 L 47.12033545280003 -0.5 Z"/><text text-anchor="middle" pointer-events="none" font-size="8px" fill="#000000" x="37.45236670280003" y="3" transform="rotate(180 37.45236670280003 0)" font-family="sans-serif">A…</text></g><g class="relationship" transform="translate(110.32589399981441 244.2374889899152) rotate(302.5065497530427)"><path class="outline" fill="#A5ABB6" stroke="none" d="M 25 0.5 L 27.185284921777132 0.5 L 27.185284921777132 -0.5 L 25 -0.5 Z M 68.29856617177714 0.5 L 70.48385109355426 0.5 L 70.48385109355426 3.5 L 77.48385109355426 0 L 70.48385109355426 -3.5 L 70.48385109355426 -0.5 L 68.29856617177714 -0.5 Z"/><text text-anchor="middle" pointer-events="none" font-size="8px" fill="#000000" x="47.74192554677713" y="3" font-family="sans-serif">ACTED…</text></g><g class="relationship" transform="translate(110.32589399981441 244.2374889899152) rotate(267.5608734152742)"><path class="outline" fill="#A5ABB6" stroke="none" d="M 25 0.5 L 26.086003091832872 0.5 L 26.086003091832872 -0.5 L 25 -0.5 Z M 61.42194059183287 0.5 L 62.507943683665744 0.5 L 62.507943683665744 3.5 L 69.50794368366574 0 L 62.507943683665744 -3.5 L 62.507943683665744 -0.5 L 61.42194059183287 -0.5 Z"/><text text-anchor="middle" pointer-events="none" font-size="8px" fill="#000000" x="43.75397184183287" y="3" transform="rotate(180 43.75397184183287 0)" font-family="sans-serif">ACTE…</text></g><g class="relationship" transform="translate(110.32589399981441 244.2374889899152) rotate(282.9010399509675)"><path class="outline" fill="#A5ABB6" stroke="none" d="M 25 0.5 L 46.42752103790366 0.5 L 46.42752103790366 -0.5 L 25 -0.5 Z M 91.99002103790366 0.5 L 113.41754207580732 0.5 L 113.41754207580732 3.5 L 120.41754207580732 0 L 113.41754207580732 -3.5 L 113.41754207580732 -0.5 L 91.99002103790366 -0.5 Z"/><text text-anchor="middle" pointer-events="none" font-size="8px" fill="#000000" x="69.20877103790366" y="3" font-family="sans-serif">ACTED_IN</text></g><g class="relationship" transform="translate(39.87159466371438 78.35065572221936) rotate(273.3771432671255)"><path class="outline" fill="#A5ABB6" stroke="none" d="M 25 0.5 L 36.27371425811135 0.5 L 36.27371425811135 -0.5 L 25 -0.5 Z M 81.83621425811134 0.5 L 93.1099285162227 0.5 L 93.1099285162227 3.5 L 100.1099285162227 0 L 93.1099285162227 -3.5 L 93.1099285162227 -0.5 L 81.83621425811134 -0.5 Z"/><text text-anchor="middle" pointer-events="none" font-size="8px" fill="#000000" x="59.05496425811135" y="3" font-family="sans-serif">ACTED_IN</text></g><g class="relationship" transform="translate(39.87159466371438 78.35065572221936) rotate(229.57304126009421)"><path class="outline" fill="#A5ABB6" stroke="none" d="M 25 0.5 L 34.68195607480141 0.5 L 34.68195607480141 -0.5 L 25 -0.5 Z M 80.2444560748014 0.5 L 89.92641214960283 0.5 L 89.92641214960283 3.5 L 96.92641214960283 0 L 89.92641214960283 -3.5 L 89.92641214960283 -0.5 L 80.2444560748014 -0.5 Z"/><text text-anchor="middle" pointer-events="none" font-size="8px" fill="#000000" x="57.46320607480141" y="3" transform="rotate(180 57.46320607480141 0)" font-family="sans-serif">ACTED_IN</text></g><g class="relationship" transform="translate(39.87159466371438 78.35065572221936) rotate(184.49385357094098)"><path class="outline" fill="#A5ABB6" stroke="none" d="M 25 0.5 L 34.501941975635575 0.5 L 34.501941975635575 -0.5 L 25 -0.5 Z M 80.06444197563557 0.5 L 89.56638395127115 0.5 L 89.56638395127115 3.5 L 96.56638395127115 0 L 89.56638395127115 -3.5 L 89.56638395127115 -0.5 L 80.06444197563557 -0.5 Z"/><text text-anchor="middle" pointer-events="none" font-size="8px" fill="#000000" x="57.283191975635575" y="3" transform="rotate(180 57.283191975635575 0)" font-family="sans-serif">ACTED_IN</text></g><g class="relationship" transform="translate(39.87159466371438 78.35065572221936) rotate(496.84591950840934)"><path class="outline" fill="#A5ABB6" stroke="none" d="M 25 0.5 L 35.26551310431086 0.5 L 35.26551310431086 -0.5 L 25 -0.5 Z M 80.82801310431086 0.5 L 91.09352620862173 0.5 L 91.09352620862173 3.5 L 98.09352620862173 0 L 91.09352620862173 -3.5 L 91.09352620862173 -0.5 L 80.82801310431086 -0.5 Z"/><text text-anchor="middle" pointer-events="none" font-size="8px" fill="#000000" x="58.04676310431086" y="3" transform="rotate(180 58.04676310431086 0)" font-family="sans-serif">ACTED_IN</text></g><g class="relationship" transform="translate(39.87159466371438 78.35065572221936) rotate(392.3336311944239)"><path class="outline" fill="#A5ABB6" stroke="none" d="M 25 0.5 L 48.00066282011245 0.5 L 48.00066282011245 -0.5 L 25 -0.5 Z M 93.56316282011245 0.5 L 116.5638256402249 0.5 L 116.5638256402249 3.5 L 123.5638256402249 0 L 116.5638256402249 -3.5 L 116.5638256402249 -0.5 L 93.56316282011245 -0.5 Z"/><text text-anchor="middle" pointer-events="none" font-size="8px" fill="#000000" x="70.78191282011245" y="3" font-family="sans-serif">ACTED_IN</text></g><g class="relationship" transform="translate(39.87159466371438 78.35065572221936) rotate(407.0899719961128)"><path class="outline" fill="#A5ABB6" stroke="none" d="M 25 0.5 L 27.61834793817473 0.5 L 27.61834793817473 -0.5 L 25 -0.5 Z M 62.95428543817473 0.5 L 65.57263337634946 0.5 L 65.57263337634946 3.5 L 72.57263337634946 0 L 65.57263337634946 -3.5 L 65.57263337634946 -0.5 L 62.95428543817473 -0.5 Z"/><text text-anchor="middle" pointer-events="none" font-size="8px" fill="#000000" x="45.28631668817473" y="3" font-family="sans-serif">ACTE…</text></g><g class="relationship" transform="translate(39.87159466371438 78.35065572221936) rotate(373.20003146414354)"><path class="outline" fill="#A5ABB6" stroke="none" d="M 25 0.5 L 26.575980275582644 0.5 L 26.575980275582644 -0.5 L 25 -0.5 Z M 72.13848027558265 0.5 L 73.71446055116529 0.5 L 73.71446055116529 3.5 L 80.71446055116529 0 L 73.71446055116529 -3.5 L 73.71446055116529 -0.5 L 72.13848027558265 -0.5 Z"/><text text-anchor="middle" pointer-events="none" font-size="8px" fill="#000000" x="49.357230275582644" y="3" font-family="sans-serif">ACTED_IN</text></g></g><g class="layer nodes"><g class="node" transform="translate(249.361130659192,150.08269968791924)"><circle class="outline" cx="0" cy="0" r="25" fill="#F79767" stroke="#f36924" stroke-width="2px"/><text text-anchor="middle" pointer-events="none" font-family="sans-serif" dy="1.5625" font-size="25" fill="#FFFFFF"/><text text-anchor="middle" pointer-events="none" font-family="sans-serif" dy="1.5625" font-size="25" fill="#FFFFFF"/><text text-anchor="middle" pointer-events="none" x="0" y="0" font-size="10px" fill="#FFFFFF" font-family="sans-serif"> Hugo</text><text text-anchor="middle" pointer-events="none" x="0" y="10" font-size="10px" fill="#FFFFFF" font-family="sans-serif"> Weaving</text></g><g class="node" transform="translate(304.8803152613909,251.12075049180999)"><circle class="outline" cx="0" cy="0" r="25" fill="#57C7E3" stroke="#23b3d7" stroke-width="2px"/><text text-anchor="middle" pointer-events="none" font-family="sans-serif" dy="1.5625" font-size="25" fill="#2A2C34"/><text text-anchor="middle" pointer-events="none" font-family="sans-serif" dy="1.5625" font-size="25" fill="#2A2C34"/><text text-anchor="middle" pointer-events="none" x="0" y="0" font-size="10px" fill="#2A2C34" font-family="sans-serif"> Cloud</text><text text-anchor="middle" pointer-events="none" x="0" y="10" font-size="10px" fill="#2A2C34" font-family="sans-serif"> Atlas</text></g><g class="node" transform="translate(352.8711829152272,96.22988855748898)"><circle class="outline" cx="0" cy="0" r="25" fill="#57C7E3" stroke="#23b3d7" stroke-width="2px"/><text text-anchor="middle" pointer-events="none" font-family="sans-serif" dy="1.5625" font-size="25" fill="#2A2C34"/><text text-anchor="middle" pointer-events="none" font-family="sans-serif" dy="1.5625" font-size="25" fill="#2A2C34"/><text text-anchor="middle" pointer-events="none" x="0" y="0" font-size="10px" fill="#2A2C34" font-family="sans-serif"> V for</text><text text-anchor="middle" pointer-events="none" x="0" y="10" font-size="10px" fill="#2A2C34" font-family="sans-serif"> Vendetta</text></g><g class="node" transform="translate(165.40030737643013,157.8097808970388)"><circle class="outline" cx="0" cy="0" r="25" fill="#57C7E3" stroke="#23b3d7" stroke-width="2px"/><text text-anchor="middle" pointer-events="none" font-family="sans-serif" dy="1.5625" font-size="25" fill="#2A2C34"/><text text-anchor="middle" pointer-events="none" font-family="sans-serif" dy="1.5625" font-size="25" fill="#2A2C34"/><text text-anchor="middle" pointer-events="none" font-family="sans-serif" dy="1.5625" font-size="25" fill="#2A2C34"/><text text-anchor="middle" pointer-events="none" x="0" y="-5" font-size="10px" fill="#2A2C34" font-family="sans-serif"> The</text><text text-anchor="middle" pointer-events="none" x="0" y="5" font-size="10px" fill="#2A2C34" font-family="sans-serif"> Matrix</text><text text-anchor="middle" pointer-events="none" x="0" y="15" font-size="10px" fill="#2A2C34" font-family="sans-serif"> Revol…</text></g><g class="node" transform="translate(106.30383129932854,149.81516943066958)"><circle class="outline" cx="0" cy="0" r="25" fill="#57C7E3" stroke="#23b3d7" stroke-width="2px"/><text text-anchor="middle" pointer-events="none" font-family="sans-serif" dy="1.5625" font-size="25" fill="#2A2C34"/><text text-anchor="middle" pointer-events="none" font-family="sans-serif" dy="1.5625" font-size="25" fill="#2A2C34"/><text text-anchor="middle" pointer-events="none" font-family="sans-serif" dy="1.5625" font-size="25" fill="#2A2C34"/><text text-anchor="middle" pointer-events="none" x="0" y="-5" font-size="10px" fill="#2A2C34" font-family="sans-serif"> The</text><text text-anchor="middle" pointer-events="none" x="0" y="5" font-size="10px" fill="#2A2C34" font-family="sans-serif"> Matrix</text><text text-anchor="middle" pointer-events="none" x="0" y="15" font-size="10px" fill="#2A2C34" font-family="sans-serif"> Reloa…</text></g><g class="node" transform="translate(191.50831484586638,36.648476426724685)"><circle class="outline" cx="0" cy="0" r="25" fill="#F79767" stroke="#f36924" stroke-width="2px"/><text text-anchor="middle" pointer-events="none" font-family="sans-serif" dy="1.5625" font-size="25" fill="#FFFFFF"/><text text-anchor="middle" pointer-events="none" font-family="sans-serif" dy="1.5625" font-size="25" fill="#FFFFFF"/><text text-anchor="middle" pointer-events="none" x="0" y="0" font-size="10px" fill="#FFFFFF" font-family="sans-serif"> Laurence</text><text text-anchor="middle" pointer-events="none" x="0" y="10" font-size="10px" fill="#FFFFFF" font-family="sans-serif"> Fishbur…</text></g><g class="node" transform="translate(110.32589399981441,244.2374889899152)"><circle class="outline" cx="0" cy="0" r="25" fill="#F79767" stroke="#f36924" stroke-width="2px"/><text text-anchor="middle" pointer-events="none" font-family="sans-serif" dy="1.5625" font-size="25" fill="#FFFFFF"/><text text-anchor="middle" pointer-events="none" x="0" y="5" font-size="10px" fill="#FFFFFF" font-family="sans-serif"> Carrie-A…</text></g><g class="node" transform="translate(39.87159466371438,78.35065572221936)"><circle class="outline" cx="0" cy="0" r="25" fill="#F79767" stroke="#f36924" stroke-width="2px"/><text text-anchor="middle" pointer-events="none" font-family="sans-serif" dy="1.5625" font-size="25" fill="#FFFFFF"/><text text-anchor="middle" pointer-events="none" font-family="sans-serif" dy="1.5625" font-size="25" fill="#FFFFFF"/><text text-anchor="middle" pointer-events="none" x="0" y="0" font-size="10px" fill="#FFFFFF" font-family="sans-serif"> Keanu</text><text text-anchor="middle" pointer-events="none" x="0" y="10" font-size="10px" fill="#FFFFFF" font-family="sans-serif"> Reeves</text></g><g class="node" transform="translate(47.24158857373101,-46.542007805710384)"><circle class="outline" cx="0" cy="0" r="25" fill="#57C7E3" stroke="#23b3d7" stroke-width="2px"/><text text-anchor="middle" pointer-events="none" font-family="sans-serif" dy="1.5625" font-size="25" fill="#2A2C34"/><text text-anchor="middle" pointer-events="none" x="0" y="5" font-size="10px" fill="#2A2C34" font-family="sans-serif"> Somethi…</text></g><g class="node" transform="translate(-39.19501920343625,-14.463785779401071)"><circle class="outline" cx="0" cy="0" r="25" fill="#57C7E3" stroke="#23b3d7" stroke-width="2px"/><text text-anchor="middle" pointer-events="none" font-family="sans-serif" dy="1.5625" font-size="25" fill="#2A2C34"/><text text-anchor="middle" pointer-events="none" font-family="sans-serif" dy="1.5625" font-size="25" fill="#2A2C34"/><text text-anchor="middle" pointer-events="none" x="0" y="0" font-size="10px" fill="#2A2C34" font-family="sans-serif"> The</text><text text-anchor="middle" pointer-events="none" x="0" y="10" font-size="10px" fill="#2A2C34" font-family="sans-serif"> Replac…</text></g><g class="node" transform="translate(-81.32106319099441,68.82566810546271)"><circle class="outline" cx="0" cy="0" r="25" fill="#57C7E3" stroke="#23b3d7" stroke-width="2px"/><text text-anchor="middle" pointer-events="none" font-family="sans-serif" dy="1.5625" font-size="25" fill="#2A2C34"/><text text-anchor="middle" pointer-events="none" font-family="sans-serif" dy="1.5625" font-size="25" fill="#2A2C34"/><text text-anchor="middle" pointer-events="none" x="0" y="0" font-size="10px" fill="#2A2C34" font-family="sans-serif"> Johnny</text><text text-anchor="middle" pointer-events="none" x="0" y="10" font-size="10px" fill="#2A2C34" font-family="sans-serif"> Mnemo…</text></g><g class="node" transform="translate(-49.92722790593645,162.54203093118605)"><circle class="outline" cx="0" cy="0" r="25" fill="#57C7E3" stroke="#23b3d7" stroke-width="2px"/><text text-anchor="middle" pointer-events="none" font-family="sans-serif" dy="1.5625" font-size="25" fill="#2A2C34"/><text text-anchor="middle" pointer-events="none" font-family="sans-serif" dy="1.5625" font-size="25" fill="#2A2C34"/><text text-anchor="middle" pointer-events="none" font-family="sans-serif" dy="1.5625" font-size="25" fill="#2A2C34"/><text text-anchor="middle" pointer-events="none" x="0" y="-5" font-size="10px" fill="#2A2C34" font-family="sans-serif"> The</text><text text-anchor="middle" pointer-events="none" x="0" y="5" font-size="10px" fill="#2A2C34" font-family="sans-serif"> Devil's</text><text text-anchor="middle" pointer-events="none" x="0" y="15" font-size="10px" fill="#2A2C34" font-family="sans-serif"> Advoc…</text></g><g class="node" transform="translate(142.79294992838533,102.49070129192098)"><circle class="outline" cx="0" cy="0" r="25" fill="#57C7E3" stroke="#23b3d7" stroke-width="2px"/><text text-anchor="middle" pointer-events="none" font-family="sans-serif" dy="1.5625" font-size="25" fill="#2A2C34"/><text text-anchor="middle" pointer-events="none" font-family="sans-serif" dy="1.5625" font-size="25" fill="#2A2C34"/><text text-anchor="middle" pointer-events="none" x="0" y="0" font-size="10px" fill="#2A2C34" font-family="sans-serif"> The</text><text text-anchor="middle" pointer-events="none" x="0" y="10" font-size="10px" fill="#2A2C34" font-family="sans-serif"> Matrix</text></g></g></svg>